<mxfile host="app.diagrams.net" agent="Mozilla/5.0 (Windows NT 10.0; Win64; x64) AppleWebKit/537.36 (KHTML, like Gecko) Chrome/128.0.0.0 Safari/537.36" border="50" scale="3" compressed="false" locked="false" version="24.7.7">
  <diagram id="pk-o1Hvl-BovNXe4bPFo" name="Page-1">
    <mxGraphModel dx="1900" dy="2765" grid="1" gridSize="10" guides="1" tooltips="1" connect="1" arrows="1" fold="1" page="1" pageScale="1" pageWidth="850" pageHeight="1100" math="0" shadow="0">
      <root>
        <mxCell id="0" />
        <mxCell id="1" parent="0" />
        <mxCell id="8m4x2laxNmNMRVbvzm8U-3" value="" style="edgeStyle=orthogonalEdgeStyle;rounded=0;orthogonalLoop=1;jettySize=auto;html=1;" edge="1" parent="1" source="8m4x2laxNmNMRVbvzm8U-1" target="8m4x2laxNmNMRVbvzm8U-2">
          <mxGeometry relative="1" as="geometry" />
        </mxCell>
        <mxCell id="8m4x2laxNmNMRVbvzm8U-1" value="POS System" style="rounded=1;whiteSpace=wrap;html=1;" vertex="1" parent="1">
          <mxGeometry x="-455" y="-2190" width="120" height="50" as="geometry" />
        </mxCell>
        <mxCell id="8m4x2laxNmNMRVbvzm8U-2" value="&lt;div style=&quot;text-align: center;&quot;&gt;&lt;span style=&quot;background-color: initial;&quot;&gt;USER ROLES&lt;/span&gt;&lt;/div&gt;&lt;div&gt;&lt;ul&gt;&lt;li style=&quot;&quot;&gt;&lt;span style=&quot;background-color: initial;&quot;&gt;SUPER ADMIN&lt;/span&gt;&lt;/li&gt;&lt;li style=&quot;&quot;&gt;&lt;span style=&quot;background-color: initial;&quot;&gt;WAREHOUSE MANAGER&lt;/span&gt;&lt;/li&gt;&lt;li style=&quot;&quot;&gt;&lt;span style=&quot;background-color: initial;&quot;&gt;STORE MANAGER&lt;/span&gt;&lt;/li&gt;&lt;li style=&quot;&quot;&gt;&lt;span style=&quot;background-color: initial;&quot;&gt;CUSTOMER(End-User)&lt;/span&gt;&lt;/li&gt;&lt;/ul&gt;&lt;/div&gt;" style="rounded=1;whiteSpace=wrap;html=1;align=left;" vertex="1" parent="1">
          <mxGeometry x="-500" y="-2100" width="210" height="120" as="geometry" />
        </mxCell>
        <mxCell id="8m4x2laxNmNMRVbvzm8U-17" style="edgeStyle=orthogonalEdgeStyle;rounded=0;orthogonalLoop=1;jettySize=auto;html=1;exitX=0.5;exitY=1;exitDx=0;exitDy=0;" edge="1" parent="1" source="8m4x2laxNmNMRVbvzm8U-2" target="8m4x2laxNmNMRVbvzm8U-2">
          <mxGeometry relative="1" as="geometry" />
        </mxCell>
        <mxCell id="8m4x2laxNmNMRVbvzm8U-18" value="&lt;div&gt;&lt;br&gt;&lt;/div&gt;&lt;div&gt;&amp;nbsp; &amp;nbsp; &amp;nbsp;GOODS DISTRIBUTION MODEL&lt;/div&gt;&lt;ul&gt;&lt;li&gt;WAREHOUSE 2 STORE&lt;/li&gt;&lt;li&gt;STORE 2 STORE&lt;/li&gt;&lt;li&gt;WAREHOUSE 2 PARTY&lt;/li&gt;&lt;li&gt;STORE 2 CUSTOMER (from store or online)&lt;/li&gt;&lt;/ul&gt;" style="shape=note;whiteSpace=wrap;html=1;backgroundOutline=1;darkOpacity=0.05;align=left;" vertex="1" parent="1">
          <mxGeometry x="-820" y="-2170" width="260" height="130" as="geometry" />
        </mxCell>
        <mxCell id="8m4x2laxNmNMRVbvzm8U-20" value="&lt;div style=&quot;text-align: center;&quot;&gt;&lt;span style=&quot;background-color: initial;&quot;&gt;ORDERS TYPE&lt;/span&gt;&lt;/div&gt;&lt;div style=&quot;&quot;&gt;&lt;ul&gt;&lt;li style=&quot;&quot;&gt;STORE 2 WAREHOUSE (store orders) (returnable)&lt;/li&gt;&lt;li style=&quot;&quot;&gt;STORE 2 STORE (returnable)&lt;/li&gt;&lt;li style=&quot;&quot;&gt;STORE 2 CUSTOMER (returnable)&lt;/li&gt;&lt;li style=&quot;&quot;&gt;WAREHOUSE 2 MARKETPLACE&lt;/li&gt;&lt;li style=&quot;&quot;&gt;WAREHOUSE 2 PARTY (returnable)&lt;/li&gt;&lt;/ul&gt;&lt;/div&gt;" style="shape=note;whiteSpace=wrap;html=1;backgroundOutline=1;darkOpacity=0.05;align=left;" vertex="1" parent="1">
          <mxGeometry x="-820" y="-2000" width="300" height="140" as="geometry" />
        </mxCell>
        <mxCell id="8m4x2laxNmNMRVbvzm8U-21" value="&lt;div style=&quot;&quot;&gt;&lt;span style=&quot;background-color: initial;&quot;&gt;MARKETPLACES&lt;br&gt;&lt;div style=&quot;text-align: left;&quot;&gt;&lt;ul&gt;&lt;li&gt;&lt;span style=&quot;background-color: initial;&quot;&gt;SHOPIFY (product upload and retrieve and fetch orders)&lt;/span&gt;&lt;/li&gt;&lt;/ul&gt;&lt;/div&gt;&lt;/span&gt;&lt;/div&gt;" style="shape=process;whiteSpace=wrap;html=1;backgroundOutline=1;align=center;" vertex="1" parent="1">
          <mxGeometry x="-280" y="-2191" width="260" height="70" as="geometry" />
        </mxCell>
        <mxCell id="8m4x2laxNmNMRVbvzm8U-22" value="POST SYSTEM AREA&lt;br&gt;&lt;ul&gt;&lt;li style=&quot;text-align: left;&quot;&gt;&lt;span style=&quot;background-color: initial;&quot;&gt;FAST-FOOD (NMI)&lt;/span&gt;&lt;/li&gt;&lt;li style=&quot;text-align: left;&quot;&gt;&lt;span style=&quot;background-color: initial;&quot;&gt;ELECTRONICS&lt;/span&gt;&lt;/li&gt;&lt;li style=&quot;text-align: left;&quot;&gt;&lt;span style=&quot;background-color: initial;&quot;&gt;FURNITURE&lt;/span&gt;&lt;/li&gt;&lt;li style=&quot;text-align: left;&quot;&gt;&lt;span style=&quot;background-color: initial;&quot;&gt;GROCERRIES&lt;/span&gt;&lt;/li&gt;&lt;/ul&gt;&lt;div style=&quot;text-align: left;&quot;&gt;&lt;br&gt;&lt;/div&gt;&lt;div style=&quot;&quot;&gt;NMI = NO MARKETPLACE INTEGRATION&lt;br&gt;&lt;/div&gt;" style="rounded=1;whiteSpace=wrap;html=1;align=center;" vertex="1" parent="1">
          <mxGeometry x="-250" y="-2090" width="230" height="130" as="geometry" />
        </mxCell>
      </root>
    </mxGraphModel>
  </diagram>
</mxfile>
